<svg xmlns="http://www.w3.org/2000/svg" width="1919.953" height="595.071" viewBox="0 0 5372 1665">
  <defs>
    <style>
      .cls-1 {
        fill: #fff;
        fill-rule: evenodd;
      }
    </style>
  </defs>
  <path class="cls-1" d="M0,1665V358c128.763-69.751,267.887-121.36,440-151l212-18c113.262-12.724,233.718,4.85,332,20l107,17q48-36,96-72c67.96-45.249,143.75-82.387,226-113,370.28-137.806,623.69,81.332,759,311,40.45,68.655,62.71,149.338,104,221,70.71-33.817,165.69-30.8,258-41,377.82-41.751,667.87,213.758,769,456,79.98,0.266,153.38,20.52,217,40,241.24,73.87,390.92,210.33,485,432q683.43,102.495,1367,205H0Z"/>
</svg>
