<svg xmlns="http://www.w3.org/2000/svg" width="469" height="622" viewBox="0 0 469 622">
  <defs>
    <style>
      .cls-1 {
        fill: #2f3032;
        fill-rule: evenodd;
      }
    </style>
  </defs>
  <path id="Shape_2_copy" data-name="Shape 2 copy" class="cls-1" d="M564.27,14.033h61.107s10.488-.949,10.488,7.949V296.031L895.042,16.661s1.669-2.627,6.642-2.627H988.03S996,13.2,996,21.982V27.3s-0.067,2.043-2.657,3.991L699.767,349.245l285.606,235.47a10.2,10.2,0,0,1,3.985,7.982v3.991s0.505,9.332-6.642,9.332H556.3s-9.306.716-9.306-10.663V24.643s-0.267-10.609,11.963-10.609h5.313Zm-538,591.934H87.376s10.488,0.948,10.488-7.949V323.969L357.04,603.339s1.67,2.628,6.642,2.628h86.346S458,606.8,458,598.018V592.7s-0.067-2.043-2.657-3.991L161.766,270.755,447.371,35.285a10.2,10.2,0,0,0,3.986-7.982V23.312s0.5-9.332-6.642-9.332H18.3s-9.306-.716-9.306,10.663V595.357s-0.267,10.61,11.963,10.61h5.314Z"/>
</svg>
