<svg xmlns="http://www.w3.org/2000/svg" width="7680" height="6113" viewBox="0 0 7680 6113">
  <defs>
    <style>
      .cls-1 {
        fill: #2b1f31;
        fill-rule: evenodd;
      }
    </style>
  </defs>
  <path class="cls-1" d="M0,26290H8177q-86.985,2634.75-174,5270-508.95,26.55-1018,53c-7.24-10-21.05-17.6-31-25-20.54-15.3-39.13-33.5-60-49-12.52-9.3-23.53-21.7-36-31-48.76-36.5-93.2-77.6-142-114-5.25-3.9-9.75-10.1-15-14-26.4-19.7-50.58-41.3-77-61-5.25-3.9-9.75-10.1-15-14-89.72-67.1-171.24-144-261-211-27.76-20.7-52.98-45.1-81-66-33.15-24.7-62.87-55.2-96-80-58.06-43.4-110.9-92.6-169-136-14.55-10.9-27.46-25.1-42-36-18.71-14-35.55-30.2-54-44-5.54-4.1-16.03-8.7-18-16-3.08-4.7-2.21-10.7-4-17-4.56-15.9-7.14-33-12-50-13.57-47.5-21.15-97.4-35-146-13.42-47.1-22.68-97.9-36-145-4.95-17.5-6.03-33.5-11-51-11.56-40.6-18.16-83.3-30-125-14-49.3-25.71-101.4-37-152h-7c-5.12-3.1-13.26-.5-20-2-16.08-3.6-33.91-1.1-51-5-32.4-7.3-69.74-3.5-102-11-13.91-3.2-28.3-1-41-4-10.33-.7-20.67-1.3-31-2q-254.97-25.5-510-51l-133-12c-35.54-8-76.45-3.7-112-12-10.23-2.4-20.88-.9-30-3-13.91-3.2-28.3-1-41-4-17.05-4-35.12-1.3-51-5-29-2.7-58-5.3-87-8-12.73-4.4-26.75-11.7-39-17-35.56-15.5-72.09-28.1-107-43-83.32-35.5-168.74-65.1-251-101-53.06-23.1-106.73-40.4-160-63-150.73-64-306.3-120.7-457-185-105.37-44.9-213.25-83.4-318-128-25.87-11-51.86-20.3-77-31-3.99-1.7-25.61-9.3-26-9-10.23,6.9-26.1,28.5-34,39-4.09,5.4-10.9,9.6-15,15-19.91,26.4-44.1,48.6-64,75-12.6,16.7-30.38,30.3-43,47-41.76,55.3-94.26,101.7-136,157-10.47,13.9-25.51,25.1-36,39-20.18,26.7-44.84,49.3-65,76-5.94,7.9-15.06,14.1-21,22-5.56,7.4-23.83,32.8-32,35-4.07,2.5-9.61,1.5-15,3-12.62,3.4-26.43,4.3-40,8-34.12,9.2-71.96,12.9-106,22-9.13,2.4-16.66,1.6-26,4-90.3,23.3-186.64,33-277,56-27.37,7-54.87,9-81,16-33.47,8.9-68.49,11.3-101,20-10.33,1.7-20.67,3.3-31,5-40.55,10.9-85.36,15.2-126,26-13.59,3.6-27.37,4.6-40,8-5.53,1.5-11.42-.4-14,4-6.24,8.8-9.01,34-13,46-12.16,36.7-19.66,75.3-32,113-15.64,47.8-27.42,99.2-43,147-4.82,14.8-6.16,28.3-11,43-12.1,36.7-19.73,75.3-32,113-6.34,19.5-13.14,40.6-18,61-34.94,19-70.25,39.4-104,60-36.51,22.3-74.94,41-111,63-14.84,9.1-30.15,15-45,24-47.99,29.2-99.03,55.7-147,85-17.12,10.5-34.89,17.5-52,28-69.87,42.7-144.12,80.3-214,123-14.843,9.1-30.146,15-45,24-48.009,29.2-99.021,55.7-147,85-14.846,9.1-30.144,15-45,24-23.985,14.6-49.543,27.1-74,42-13.85,8.4-28.088,17.7-43,25q-108.489,510-217,1020c-9.12,2.8-16.686,11.8-24,17-19.86,14-39.426,28.2-59,42-66.492,46.9-132.42,93.2-199,140-21.928,15.4-43.764,31.4-66,47-8.707,6.1-17.427,16.3-28,20V26290Zm2830,459v1921q113.49,9.45,227,19c8.33,0.3,16.67.7,25,1,34.79,7.7,75.18,2.4,110,10l50,3c34.85,7.6,75.16,2.3,110,10,12.6,2.8,25.64.5,37,3,12.6,2.8,25.64.5,37,3q366.465-24.45,733-49V26742q-197.475,14.55-395,29c-13.75,3-39.83-.5-51-3h-12c-17.99-4-39.97-2-58-6-19.66-1.3-39.34-2.7-59-4-36.79-8.1-79.22-2.9-116-11-11.89-2.6-24.35-.6-35-3-15.83-3.5-32.34-.8-47-4-8.28-1.8-18.63,1.5-25,3-16.16,3.7-32.92,2.5-48,6-13,1.3-26,2.7-39,4-37.81,8.6-80.22,7.6-118,16-11.73,2.6-29.34.1-39-2h-16c-13.99-3.1-32.01-.9-46-4-26-1.3-52-2.7-78-4-13.99-3.1-32.01-.9-46-4h-16c-9.28-2-20.48.3-31-2C2868,26749.5,2847.1,26749.2,2830,26749Zm-1518,0v1921h2c5.92,3.9,15.38,2.8,23,5,20.16,5.7,41.82,8,63,14,32.02,9,65.82,13.2,99,22,6.86,1.8,28.95,9.6,36,8,10.3-2.4,22.9-7.6,33-11,19.62-6.6,38.31-9.5,58-16,23.05-7.7,47.84-16.3,72-22V26742h-2c-4.08,3-9.73,3-15,5-13.64,5.1-28.68,8.7-43,14l-90,30Q1430.01,26770,1312,26749Zm4409-7c-6.74,4.6-17.61,1.9-27,4-22.68,5.1-48.43,2.7-72,8q-86.985,10.05-174,20-55.5-12.45-111-25v1921h2c6.47,4.7,16.62,4.3,25,7,15.95,5.2,33.05,8.5,50,14,21.92,7.1,45.09,11.7,68,19,8.48,2.7,19.25,7,28,9,6.19,1.4,16.08-3.6,21-5,14.7-4.2,29.34-6.1,43-10,16.43-4.7,31.61-5.3,48-10,32.54-9.3,67.42-16.6,101-24V26742h-2ZM946,28670V26888q-139.986,24.45-280,49c-12.262-2.9-26.44-11.1-38-16-22.758-9.7-45.577-16.6-68-26v1775a517.9,517.9,0,0,1,50,27c6.427,3.9,13.568,5.1,20,9,6.2,3.8,15.227,10.7,22,13Q798.985,28694.55,946,28670Zm3939-1728c-6.28,4.2-16.1,3.6-24,6-17.96,5.5-37.19,8.3-56,14-21.05,6.4-43.26,9.5-65,16-15.04,4.5-32.64,9.8-48,13q-95.49-21-191-42v1721h2c3.82,2.8,8.84,2.3,14,4,17.32,5.7,35.71,9,54,15,24.19,7.9,49.78,12.9,75,21,8.48,2.7,19.25,7,28,9,6.19,1.4,16.08-3.6,21-5,14.7-4.2,29.34-6.1,43-10,16.43-4.7,31.61-5.3,48-10,32.54-9.3,67.42-16.6,101-24V26942h-2Zm-2430,250c-6.28,4.2-16.1,3.6-24,6-17.95,5.5-37.19,8.3-56,14-20.99,6.4-43.3,9.5-65,16-15.04,4.5-32.64,9.8-48,13q-95.49-21-191-42v1471h2c6.47,4.7,16.62,4.3,25,7,15.95,5.2,33.05,8.5,50,14,21.92,7.1,45.09,11.7,68,19,8.48,2.7,19.25,7,28,9,6.19,1.4,16.08-3.6,21-5,14.7-4.2,29.34-6.1,43-10,16.43-4.7,31.61-5.3,48-10,32.54-9.3,67.42-16.6,101-24V27192h-2Z" transform="translate(0 -26290)"/>
</svg>
